<svg width="81" height="28" viewBox="0 0 81 28" fill="none" xmlns="http://www.w3.org/2000/svg">
<path d="M11.8639 4.42198L3.83945 9.85394C2.68911 10.6326 2 11.9313 2 13.3204V17.1604C2 20.5271 5.77261 22.5163 8.55066 20.6144L16.5751 15.1207C17.7149 14.3404 18.3964 13.048 18.3964 11.6667V7.88841C18.3964 4.53169 14.6437 2.54032 11.8639 4.42198Z" stroke="white" stroke-width="3.53153"/>
<path d="M17.9186 7.32286L9.89414 12.7548C8.7438 13.5335 8.05469 14.8321 8.05469 16.2213V20.0613C8.05469 23.428 11.8273 25.4172 14.6053 23.5153L22.6298 18.0216C23.7696 17.2413 24.4511 15.9489 24.4511 14.5676V10.7893C24.4511 7.43257 20.6984 5.44119 17.9186 7.32286Z" stroke="white" stroke-width="3.53153"/>
<path d="M32.9023 21.5H30.2899V6.58064H35.9841C39.3721 6.58064 41.3518 8.29504 41.3518 11.234C41.3518 13.2341 40.413 14.6628 38.6578 15.3771L41.4947 21.5H38.6374L36.1066 15.9282H32.9023V21.5ZM32.9023 8.90733V13.6219H35.9841C37.6373 13.6219 38.617 12.7443 38.617 11.234C38.617 9.74412 37.6373 8.90733 35.9841 8.90733H32.9023ZM52.4122 21.5H43.1463V6.58064H52.4122V8.98897H45.7587V12.826H51.7183V15.1322H45.7587V19.0917H52.4122V21.5ZM53.5709 10.7442C53.5709 8.13177 55.7343 6.31532 58.8774 6.31532C61.898 6.31532 63.8165 7.9889 63.8981 10.683H61.2857C61.2245 9.39716 60.3061 8.642 58.8366 8.642C57.2242 8.642 56.1833 9.41757 56.1833 10.6625C56.1833 11.7238 56.7548 12.3157 57.9998 12.6015L60.3469 13.1117C62.8981 13.6627 64.1431 14.969 64.1431 17.1936C64.1431 19.9693 61.9796 21.7653 58.6937 21.7653C55.5098 21.7653 53.4281 20.0713 53.3668 17.3977H55.9793C55.9997 18.6631 57.0201 19.4182 58.6937 19.4182C60.4285 19.4182 61.5306 18.6631 61.5306 17.4181C61.5306 16.418 61.0204 15.8262 59.7958 15.5608L57.4283 15.0302C54.8975 14.4791 53.5709 13.0301 53.5709 10.7442ZM77.4051 22.6225L75.7723 20.7857C74.711 21.398 73.4457 21.7449 72.0374 21.7449C67.7718 21.7449 64.8328 18.5814 64.8328 14.0301C64.8328 9.4992 67.7922 6.31532 72.0578 6.31532C76.3234 6.31532 79.3032 9.47879 79.3032 14.0301C79.3032 16.1731 78.6501 18.01 77.4867 19.357L79.0787 21.1326L77.4051 22.6225ZM76.5479 14.0301C76.5479 10.8462 74.7927 8.82569 72.0578 8.82569C69.3229 8.82569 67.5677 10.8462 67.5677 14.0301C67.5677 17.214 69.3229 19.2345 72.0578 19.2345C72.7925 19.2345 73.4457 19.0917 74.0375 18.8059L72.0578 16.5813L73.711 15.0914L75.6907 17.316C76.2418 16.4588 76.5479 15.3363 76.5479 14.0301Z" fill="white"/>
</svg>
