<svg width="92" height="32" viewBox="0 0 92 32" fill="none" xmlns="http://www.w3.org/2000/svg">
<path d="M13.5524 5.05369L4.38153 11.2616C3.06686 12.1516 2.2793 13.6357 2.2793 15.2233V19.6119C2.2793 23.4595 6.59085 25.733 9.76577 23.5594L18.9366 17.2809C20.2392 16.3891 21.018 14.912 21.018 13.3334V9.01533C21.018 5.17908 16.7292 2.90322 13.5524 5.05369Z" stroke="#344054" stroke-width="4.03604"/>
<path d="M20.4713 8.36912L11.3005 14.5771C9.9858 15.467 9.19824 16.9512 9.19824 18.5387V22.9273C9.19824 26.775 13.5098 29.0484 16.6847 26.8748L25.8556 20.5963C27.1582 19.7045 27.937 18.2275 27.937 16.6488V12.3308C27.937 8.49451 23.6482 6.21865 20.4713 8.36912Z" stroke="#344054" stroke-width="4.03604"/>
<path d="M37.5957 24.5H34.61V7.44931H41.1178C44.9897 7.44931 47.2523 9.40862 47.2523 12.7674C47.2523 15.0533 46.1793 16.6861 44.1734 17.5025L47.4156 24.5H44.15L41.2577 18.1322H37.5957V24.5ZM37.5957 10.1084V15.4965H41.1178C43.0071 15.4965 44.1267 14.4935 44.1267 12.7674C44.1267 11.0647 43.0071 10.1084 41.1178 10.1084H37.5957ZM59.8927 24.5H49.3031V7.44931H59.8927V10.2017H52.2887V14.5868H59.0996V17.2226H52.2887V21.7476H59.8927V24.5ZM61.2169 12.2076C61.2169 9.22202 63.6894 7.14608 67.2815 7.14608C70.7336 7.14608 72.9262 9.05874 73.0195 12.1377H70.0339C69.9639 10.6682 68.9142 9.80515 67.2348 9.80515C65.3921 9.80515 64.2026 10.6915 64.2026 12.1143C64.2026 13.3272 64.8557 14.0037 66.2785 14.3302L68.9609 14.9134C71.8765 15.5431 73.2994 17.0359 73.2994 19.5784C73.2994 22.7506 70.8269 24.8032 67.0716 24.8032C63.4328 24.8032 61.0537 22.8672 60.9837 19.8116H63.9693C63.9926 21.2578 65.1589 22.1208 67.0716 22.1208C69.0542 22.1208 70.3138 21.2578 70.3138 19.835C70.3138 18.692 69.7306 18.0156 68.3311 17.7124L65.6254 17.1059C62.7331 16.4761 61.2169 14.8201 61.2169 12.2076ZM88.456 25.7829L86.59 23.6836C85.3771 24.3834 83.9309 24.7799 82.3215 24.7799C77.4465 24.7799 74.0877 21.1645 74.0877 15.963C74.0877 10.7848 77.4698 7.14608 82.3448 7.14608C87.2198 7.14608 90.6252 10.7615 90.6252 15.963C90.6252 18.4121 89.8788 20.5114 88.5493 22.0509L90.3687 24.0801L88.456 25.7829ZM87.4763 15.963C87.4763 12.3243 85.4704 10.0151 82.3448 10.0151C79.2192 10.0151 77.2133 12.3243 77.2133 15.963C77.2133 19.6017 79.2192 21.9109 82.3448 21.9109C83.1845 21.9109 83.9309 21.7476 84.6073 21.4211L82.3448 18.8786L84.2341 17.1759L86.4967 19.7183C87.1265 18.7387 87.4763 17.4558 87.4763 15.963Z" fill="#FF6C2D"/>
</svg>
