<svg width="438" height="138" viewBox="0 0 438 138" fill="none" xmlns="http://www.w3.org/2000/svg">
<path d="M105.627 108.177L86.1161 89.2615L94.012 81.9875L96.9208 79.3111L97.0758 79.172L97.3659 78.882C104.66 71.4446 108.736 61.437 108.715 51.0198C108.715 29.9588 92.2576 12.4742 71.2502 11.2065C65.729 10.8635 60.1975 11.6895 55.0173 13.6305C50.0411 15.4902 45.4877 18.3277 41.6257 21.9755C37.6283 25.7522 34.4421 30.3036 32.2614 35.3521C30.0806 40.4006 28.951 45.8404 28.9414 51.3397V113.807C28.9413 116.201 29.6383 118.542 30.9474 120.546C32.2564 122.549 34.1207 124.128 36.3125 125.09C38.5043 126.051 40.9287 126.353 43.2893 125.959C45.6499 125.564 47.8445 124.491 49.605 122.87L69.4243 104.624L89.8574 124.433C91.966 126.49 94.7959 127.64 97.7414 127.636C99.2563 127.632 100.755 127.327 102.15 126.737C103.546 126.147 104.809 125.285 105.868 124.201C106.905 123.133 107.722 121.872 108.271 120.489C108.82 119.105 109.091 117.627 109.069 116.139C109.047 114.651 108.731 113.181 108.141 111.815C107.55 110.449 106.696 109.213 105.627 108.177ZM48.8023 96.601V51.3397C48.791 48.5464 49.357 45.7808 50.4648 43.2165C51.5726 40.6522 53.1982 38.3445 55.2399 36.438C58.9039 32.9437 63.773 30.9948 68.8361 30.9959C69.2335 30.9959 69.6382 31.0085 70.0501 31.0337C73.8583 31.2657 77.5209 32.5811 80.6065 34.825C83.6921 37.0689 86.0722 40.1479 87.4664 43.6992C88.8606 47.2506 89.2109 51.1264 88.4761 54.8702C87.7412 58.614 85.9518 62.0699 83.3186 64.8307L81.7609 66.2672H81.7509L48.8023 96.601Z" fill="#1D2939"/>
<path d="M162.816 114.5H147.618V27.7027H180.746C200.456 27.7027 211.974 37.6767 211.974 54.7749C211.974 66.4112 206.512 74.7229 196.3 78.8787L212.805 114.5H196.181L181.458 82.0846H162.816V114.5ZM162.816 41.2388V68.6672H180.746C190.363 68.6672 196.063 63.5615 196.063 54.7749C196.063 46.1071 190.363 41.2388 180.746 41.2388H162.816ZM276.32 114.5H222.413V27.7027H276.32V41.7138H237.612V64.0365H272.283V77.4538H237.612V100.489H276.32V114.5ZM283.061 51.9252C283.061 36.7268 295.648 26.1591 313.933 26.1591C331.506 26.1591 342.668 35.8956 343.143 51.569H327.944C327.588 44.0885 322.245 39.6952 313.696 39.6952C304.315 39.6952 298.26 44.2073 298.26 51.4503C298.26 57.6246 301.584 61.068 308.827 62.7303L322.482 65.6988C337.324 68.9047 344.567 76.5039 344.567 89.4463C344.567 105.595 331.981 116.044 312.865 116.044C294.341 116.044 282.23 106.188 281.874 90.6337H297.072C297.191 97.9955 303.128 102.389 312.865 102.389C322.957 102.389 329.369 97.9955 329.369 90.7525C329.369 84.9343 326.401 81.4909 319.276 79.9473L305.503 76.8601C290.779 73.6542 283.061 65.2238 283.061 51.9252ZM421.723 121.031L412.224 110.344C406.05 113.906 398.688 115.925 390.495 115.925C365.679 115.925 348.58 97.5205 348.58 71.042C348.58 44.6822 365.797 26.1591 390.614 26.1591C415.43 26.1591 432.766 44.5635 432.766 71.042C432.766 83.5094 428.966 94.1958 422.198 102.033L431.459 112.363L421.723 121.031ZM416.736 71.042C416.736 52.5189 406.524 40.7639 390.614 40.7639C374.703 40.7639 364.491 52.5189 364.491 71.042C364.491 89.5651 374.703 101.32 390.614 101.32C394.888 101.32 398.688 100.489 402.131 98.8266L390.614 85.8842L400.231 77.2163L411.749 90.1588C414.955 85.1718 416.736 78.6412 416.736 71.042Z" fill="#FF6C2D"/>
</svg>
