<svg width="27" height="28" viewBox="0 0 27 28" fill="none" xmlns="http://www.w3.org/2000/svg">
<path d="M11.8639 4.42198L3.83945 9.85394C2.68911 10.6326 2 11.9313 2 13.3204V17.1604C2 20.5271 5.77261 22.5163 8.55066 20.6144L16.5751 15.1207C17.7149 14.3404 18.3964 13.048 18.3964 11.6667V7.88841C18.3964 4.53169 14.6437 2.54032 11.8639 4.42198Z" stroke="white" stroke-width="3.53153"/>
<path d="M17.9186 7.32286L9.89414 12.7548C8.7438 13.5335 8.05469 14.8321 8.05469 16.2213V20.0613C8.05469 23.428 11.8273 25.4172 14.6053 23.5153L22.6298 18.0216C23.7696 17.2413 24.4511 15.9489 24.4511 14.5676V10.7893C24.4511 7.43257 20.6984 5.44119 17.9186 7.32286Z" stroke="white" stroke-width="3.53153"/>
</svg>
