<svg width="16" height="14" viewBox="0 0 16 14" fill="none" xmlns="http://www.w3.org/2000/svg">
<path d="M11.75 13C11.75 11.7574 10.0711 10.75 8 10.75C5.92893 10.75 4.25 11.7574 4.25 13M14.75 10.7503C14.75 9.82764 13.8244 9.0347 12.5 8.6875M1.25 10.7503C1.25 9.82764 2.17557 9.0347 3.5 8.6875M12.5 5.67708C12.9603 5.26509 13.25 4.66637 13.25 4C13.25 2.75736 12.2426 1.75 11 1.75C10.4237 1.75 9.89807 1.96664 9.5 2.32292M3.5 5.67708C3.03969 5.26509 2.75 4.66637 2.75 4C2.75 2.75736 3.75736 1.75 5 1.75C5.57627 1.75 6.10193 1.96664 6.5 2.32292M8 8.5C6.75736 8.5 5.75 7.49264 5.75 6.25C5.75 5.00736 6.75736 4 8 4C9.24264 4 10.25 5.00736 10.25 6.25C10.25 7.49264 9.24264 8.5 8 8.5Z" stroke="white" stroke-width="2" stroke-linecap="round" stroke-linejoin="round"/>
</svg>
