<svg width="19" height="21" viewBox="0 0 19 21" fill="none" xmlns="http://www.w3.org/2000/svg">
<path d="M8.52982 4.02206L2.81094 7.8933C1.99112 8.44826 1.5 9.37376 1.5 10.3638V13.1004C1.5 15.4998 4.18865 16.9175 6.16851 15.5621L11.8874 11.6468C12.6997 11.0907 13.1854 10.1697 13.1854 9.18521V6.49251C13.1854 4.10025 10.5109 2.68104 8.52982 4.02206Z" stroke="#E86229" stroke-width="2.51685"/>
<path d="M12.8452 6.08944L7.12637 9.96068C6.30655 10.5156 5.81543 11.4411 5.81543 12.4311V15.1678C5.81543 17.5672 8.50408 18.9849 10.4839 17.6295L16.2028 13.7142C17.0151 13.1581 17.5008 12.237 17.5008 11.2526V8.5599C17.5008 6.16763 14.8263 4.74842 12.8452 6.08944Z" stroke="#E86229" stroke-width="2.51685"/>
</svg>
