<svg width="18" height="18" viewBox="0 0 18 18" fill="none" xmlns="http://www.w3.org/2000/svg">
<path d="M1.5 15.0004H3M3 15.0004H7.5M3 15.0004V8.58953C3 8.18878 3 7.9883 3.04873 7.80181C3.09191 7.63656 3.16334 7.48017 3.25928 7.33885C3.36753 7.17938 3.51798 7.04714 3.81958 6.78324L7.42077 3.6322C7.97988 3.14297 8.25946 2.89834 8.57431 2.80523C8.85196 2.72313 9.14789 2.72313 9.42554 2.80523C9.74063 2.89841 10.0206 3.14327 10.5806 3.63324L14.1806 6.78324C14.4822 7.04713 14.6327 7.17938 14.7409 7.33885C14.8369 7.48017 14.9077 7.63656 14.9509 7.80181C14.9997 7.9883 15 8.18878 15 8.58953V15.0004M7.5 15.0004H10.5M7.5 15.0004V12.0004C7.5 11.172 8.17157 10.5004 9 10.5004C9.82843 10.5004 10.5 11.172 10.5 12.0004V15.0004M10.5 15.0004H15M15 15.0004H16.5" stroke="white" stroke-width="1.5" stroke-linecap="round" stroke-linejoin="round"/>
</svg>
