<svg width="18" height="14" viewBox="0 0 18 14" fill="none" xmlns="http://www.w3.org/2000/svg">
<path d="M1.5 13.0004H3M3 13.0004H7.5M3 13.0004V6.58953C3 6.18878 3 5.9883 3.04873 5.80181C3.09191 5.63656 3.16334 5.48017 3.25928 5.33885C3.36753 5.17938 3.51798 5.04714 3.81958 4.78324L7.42077 1.6322C7.97988 1.14297 8.25946 0.898344 8.57431 0.805232C8.85196 0.723126 9.14789 0.723126 9.42554 0.805232C9.74063 0.898414 10.0206 1.14327 10.5806 1.63324L14.1806 4.78324C14.4822 5.04713 14.6327 5.17938 14.7409 5.33885C14.8369 5.48017 14.9077 5.63656 14.9509 5.80181C14.9997 5.9883 15 6.18878 15 6.58953V13.0004M7.5 13.0004H10.5M7.5 13.0004V10.0004C7.5 9.172 8.17157 8.50042 9 8.50042C9.82843 8.50042 10.5 9.172 10.5 10.0004V13.0004M10.5 13.0004H15M15 13.0004H16.5" stroke="white" stroke-width="1.5" stroke-linecap="round" stroke-linejoin="round"/>
</svg>
