<svg width="16" height="14" viewBox="0 0 16 14" fill="none" xmlns="http://www.w3.org/2000/svg">
<path d="M1.25 6.25H2.03411M2.03411 6.25H13.9659M2.03411 6.25C2.04246 6.2114 2.05233 6.17313 2.06372 6.13533C2.09091 6.04512 2.12932 5.95836 2.20654 5.78461L3.36624 3.17529C3.59552 2.6594 3.71036 2.4013 3.89157 2.21216C4.05176 2.04497 4.24823 1.91725 4.46606 1.83878C4.7125 1.75 4.99502 1.75 5.55957 1.75H10.4402C11.0047 1.75 11.2875 1.75 11.534 1.83878C11.7518 1.91725 11.948 2.04497 12.1082 2.21216C12.2892 2.40117 12.4039 2.65906 12.6328 3.17425L13.7972 5.7941C13.8716 5.96155 13.9095 6.04678 13.9362 6.13533C13.9476 6.17313 13.9575 6.2114 13.9659 6.25M2.03411 6.25C2.02476 6.29323 2.01732 6.33687 2.01179 6.38074C2 6.47422 2 6.56925 2 6.7594V10.75M13.9659 6.25H14.75M13.9659 6.25C13.9753 6.29323 13.9827 6.33687 13.9883 6.38074C14 6.47365 14 6.56814 14 6.75598V10.7501M14 10.7501L11 10.7501M14 10.7501V11.4999C14 12.3283 13.3284 13 12.5 13C11.6716 13 11 12.3284 11 11.5V10.7501M11 10.7501L5 10.75M5 10.75H2M5 10.75V11.5C5 12.3284 4.32843 13 3.5 13C2.67157 13 2 12.3284 2 11.5V10.75" stroke="white" stroke-width="2" stroke-linecap="round" stroke-linejoin="round"/>
</svg>
