<svg width="18" height="18" viewBox="0 0 18 18" fill="none" xmlns="http://www.w3.org/2000/svg">
<path d="M15.2625 6.6922L14.9878 6.5394C14.9451 6.51567 14.9242 6.50377 14.9036 6.49143C14.6988 6.36874 14.5261 6.19923 14.4001 5.99642C14.3875 5.97602 14.3755 5.95462 14.3511 5.91232C14.3267 5.87008 14.3143 5.84868 14.303 5.82749C14.19 5.6165 14.1289 5.38136 14.1252 5.14205C14.1248 5.11799 14.1249 5.0934 14.1257 5.04453L14.1311 4.72559C14.1397 4.21519 14.144 3.9592 14.0723 3.72946C14.0086 3.5254 13.902 3.33744 13.7596 3.17794C13.5987 2.99764 13.376 2.86901 12.9302 2.61207L12.5598 2.39865C12.1152 2.14243 11.8928 2.01428 11.6567 1.96543C11.4479 1.9222 11.2324 1.92421 11.0243 1.97092C10.7895 2.02364 10.5699 2.15513 10.1309 2.41797L10.1284 2.41916L9.86304 2.57806C9.82108 2.60318 9.79984 2.61585 9.77881 2.62754C9.5701 2.74358 9.33711 2.80774 9.09843 2.8154C9.07438 2.81617 9.04991 2.81617 9.00098 2.81617C8.95236 2.81617 8.92684 2.81617 8.90284 2.8154C8.66364 2.80771 8.43017 2.7432 8.22113 2.62668C8.20007 2.61493 8.17922 2.60217 8.13718 2.57693L7.87012 2.4166C7.42817 2.15127 7.20686 2.01841 6.97071 1.96543C6.76178 1.91855 6.54553 1.91725 6.33593 1.96103C6.09927 2.01046 5.87682 2.13957 5.43194 2.39777L5.42996 2.39865L5.06421 2.61093L5.06016 2.61341C4.61928 2.86929 4.39831 2.99754 4.23877 3.1771C4.0972 3.33645 3.99138 3.52411 3.92805 3.72763C3.85646 3.95768 3.86027 4.21422 3.8689 4.72702L3.87426 5.04552C3.87507 5.09375 3.87648 5.11771 3.87613 5.14143C3.87257 5.38124 3.81064 5.61685 3.69731 5.82822C3.6861 5.84912 3.67402 5.87003 3.64991 5.91178C3.62577 5.95356 3.61408 5.97434 3.60157 5.99451C3.47502 6.19839 3.3016 6.3689 3.0955 6.49179C3.07511 6.50395 3.05363 6.51564 3.01141 6.53903L2.74024 6.68931C2.28906 6.93934 2.06353 7.06446 1.89942 7.24252C1.75424 7.40004 1.64456 7.58689 1.57762 7.79038C1.50194 8.0204 1.50201 8.27834 1.50318 8.79416L1.50413 9.21576C1.5053 9.72813 1.50689 9.98415 1.58274 10.2126C1.64984 10.4147 1.75871 10.6005 1.90308 10.7571C2.06626 10.934 2.28955 11.0584 2.73731 11.3075L3.00606 11.457C3.0518 11.4824 3.07482 11.495 3.09687 11.5083C3.30111 11.6312 3.47317 11.8013 3.59864 12.004C3.61219 12.0259 3.6252 12.0486 3.65122 12.0941C3.67692 12.139 3.69007 12.1614 3.70195 12.1839C3.81196 12.3922 3.87085 12.6236 3.87487 12.8591C3.8753 12.8845 3.87493 12.9103 3.87406 12.962L3.8689 13.2676C3.86021 13.7822 3.85643 14.0398 3.92844 14.2705C3.99215 14.4745 4.09863 14.6625 4.24097 14.822C4.40186 15.0023 4.62491 15.1308 5.0708 15.3878L5.44108 15.6012C5.88572 15.8574 6.10796 15.9854 6.34402 16.0342C6.55285 16.0775 6.76848 16.0758 6.97657 16.0291C7.21175 15.9763 7.43211 15.8443 7.87232 15.5807L8.13769 15.4218C8.17967 15.3967 8.20093 15.3841 8.22196 15.3724C8.43067 15.2564 8.66343 15.1919 8.9021 15.1842C8.92616 15.1834 8.95062 15.1834 8.99955 15.1834C9.04859 15.1834 9.07304 15.1834 9.09714 15.1842C9.33633 15.1919 9.57051 15.2566 9.77954 15.3731C9.79794 15.3834 9.81636 15.3945 9.84872 15.4139L10.1308 15.5833C10.5728 15.8486 10.7937 15.9811 11.0299 16.0341C11.2388 16.081 11.4552 16.0829 11.6648 16.0391C11.9014 15.9897 12.1243 15.8603 12.5689 15.6023L12.9402 15.3868C13.3813 15.1307 13.6026 15.0023 13.7621 14.8227C13.9037 14.6634 14.0097 14.4758 14.073 14.2723C14.1441 14.0439 14.1398 13.7893 14.1313 13.2839L14.1257 12.9543C14.1249 12.9061 14.1248 12.8821 14.1252 12.8584C14.1287 12.6186 14.1896 12.3828 14.303 12.1714C14.3142 12.1506 14.3263 12.1295 14.3504 12.0879C14.3745 12.0461 14.387 12.0253 14.3995 12.0051C14.5261 11.8012 14.6997 11.6306 14.9058 11.5077C14.9259 11.4957 14.9466 11.4842 14.9878 11.4613L14.9893 11.4607L15.2604 11.3104C15.7116 11.0604 15.9376 10.9351 16.1017 10.7571C16.2469 10.5995 16.3564 10.4129 16.4233 10.2095C16.4986 9.98078 16.498 9.72435 16.4968 9.21455L16.4959 8.78391C16.4947 8.27153 16.4941 8.01555 16.4182 7.78708C16.3511 7.58496 16.2416 7.39921 16.0973 7.24264C15.9342 7.06583 15.7106 6.94144 15.2638 6.69283L15.2625 6.6922Z" stroke="white" stroke-width="2" stroke-linecap="round" stroke-linejoin="round"/>
<path d="M6.00025 8.99997C6.00025 10.6568 7.34339 12 9.00025 12C10.6571 12 12.0002 10.6568 12.0002 8.99997C12.0002 7.34312 10.6571 5.99997 9.00025 5.99997C7.34339 5.99997 6.00025 7.34312 6.00025 8.99997Z" stroke="white" stroke-width="2" stroke-linecap="round" stroke-linejoin="round"/>
</svg>
