<svg width="16" height="14" viewBox="0 0 16 14" fill="none" xmlns="http://www.w3.org/2000/svg">
<path d="M14.75 12.9999C14.75 11.6937 13.4978 10.5825 11.75 10.1707M10.25 13C10.25 11.3431 8.23528 10 5.75 10C3.26472 10 1.25 11.3431 1.25 13M10.25 7.75C11.9069 7.75 13.25 6.40685 13.25 4.75C13.25 3.09315 11.9069 1.75 10.25 1.75M5.75 7.75C4.09315 7.75 2.75 6.40685 2.75 4.75C2.75 3.09315 4.09315 1.75 5.75 1.75C7.40685 1.75 8.75 3.09315 8.75 4.75C8.75 6.40685 7.40685 7.75 5.75 7.75Z" stroke="white" stroke-width="2" stroke-linecap="round" stroke-linejoin="round"/>
</svg>
