<svg width="16" height="14" viewBox="0 0 16 14" fill="none" xmlns="http://www.w3.org/2000/svg">
<path d="M7.625 9.25C7.00368 9.25 6.5 8.74632 6.5 8.125C6.5 7.50368 7.00368 7 7.625 7M1.25 9.85015V4.15015C1.25 3.31007 1.25 2.88972 1.41349 2.56885C1.5573 2.2866 1.7866 2.0573 2.06885 1.91349C2.38972 1.75 2.81007 1.75 3.65015 1.75H12.3501C13.1902 1.75 13.6097 1.75 13.9305 1.91349C14.2128 2.0573 14.4429 2.2866 14.5867 2.56885C14.75 2.8894 14.75 3.30925 14.75 4.14768V9.85268C14.75 10.6911 14.75 11.1104 14.5867 11.4309C14.4429 11.7132 14.2128 11.9429 13.9305 12.0867C13.61 12.25 13.1908 12.25 12.3523 12.25H3.64768C2.80925 12.25 2.3894 12.25 2.06885 12.0867C1.7866 11.9429 1.5573 11.7132 1.41349 11.4309C1.25 11.11 1.25 10.6902 1.25 9.85015ZM11.75 8.125C11.75 8.74632 11.2463 9.25 10.625 9.25C10.0037 9.25 9.5 8.74632 9.5 8.125C9.5 7.50368 10.0037 7 10.625 7C11.2463 7 11.75 7.50368 11.75 8.125Z" stroke="white" stroke-width="2" stroke-linecap="round" stroke-linejoin="round"/>
</svg>
